<svg class="main-svg" xmlns="http://www.w3.org/2000/svg" xmlns:xlink="http://www.w3.org/1999/xlink" width="1600" height="1400" style="" viewBox="0 0 800 700"><rect x="0" y="0" width="800" height="700" style="fill: rgb(255, 255, 255); fill-opacity: 1;"/><defs id="defs-b7bb1e"><g class="clips"><clipPath id="clipb7bb1exyplot" class="plotclip"><rect width="497" height="520"/></clipPath><clipPath class="axesclip" id="clipb7bb1ex"><rect x="223" y="0" width="497" height="700"/></clipPath><clipPath class="axesclip" id="clipb7bb1ey"><rect x="0" y="100" width="800" height="520"/></clipPath><clipPath class="axesclip" id="clipb7bb1exy"><rect x="223" y="100" width="497" height="520"/></clipPath></g><g class="gradients"/><g class="patterns"/></defs><g class="bglayer"><rect class="bg" x="223" y="100" width="497" height="520" style="fill: rgb(229, 236, 246); fill-opacity: 1; stroke-width: 0;"/></g><g class="layer-below"><g class="imagelayer"/><g class="shapelayer"/></g><g class="cartesianlayer"><g class="subplot xy"><g class="layer-subplot"><g class="shapelayer"/><g class="imagelayer"/></g><g class="minor-gridlayer"><g class="x"/><g class="y"/></g><g class="gridlayer"><g class="x"><path class="xgrid crisp" transform="translate(251.6,0)" d="M0,100v520" style="stroke: rgb(255, 255, 255); stroke-opacity: 1; stroke-width: 1px;"/><path class="xgrid crisp" transform="translate(361.55,0)" d="M0,100v520" style="stroke: rgb(255, 255, 255); stroke-opacity: 1; stroke-width: 1px;"/><path class="xgrid crisp" transform="translate(471.5,0)" d="M0,100v520" style="stroke: rgb(255, 255, 255); stroke-opacity: 1; stroke-width: 1px;"/><path class="xgrid crisp" transform="translate(581.45,0)" d="M0,100v520" style="stroke: rgb(255, 255, 255); stroke-opacity: 1; stroke-width: 1px;"/><path class="xgrid crisp" transform="translate(691.4,0)" d="M0,100v520" style="stroke: rgb(255, 255, 255); stroke-opacity: 1; stroke-width: 1px;"/></g><g class="y"><path class="ygrid crisp" transform="translate(0,590.25)" d="M223,0h497" style="stroke: rgb(255, 255, 255); stroke-opacity: 1; stroke-width: 1px;"/><path class="ygrid crisp" transform="translate(0,566.01)" d="M223,0h497" style="stroke: rgb(255, 255, 255); stroke-opacity: 1; stroke-width: 1px;"/><path class="ygrid crisp" transform="translate(0,541.78)" d="M223,0h497" style="stroke: rgb(255, 255, 255); stroke-opacity: 1; stroke-width: 1px;"/><path class="ygrid crisp" transform="translate(0,517.54)" d="M223,0h497" style="stroke: rgb(255, 255, 255); stroke-opacity: 1; stroke-width: 1px;"/><path class="ygrid crisp" transform="translate(0,493.3)" d="M223,0h497" style="stroke: rgb(255, 255, 255); stroke-opacity: 1; stroke-width: 1px;"/><path class="ygrid crisp" transform="translate(0,469.07)" d="M223,0h497" style="stroke: rgb(255, 255, 255); stroke-opacity: 1; stroke-width: 1px;"/><path class="ygrid crisp" transform="translate(0,444.83)" d="M223,0h497" style="stroke: rgb(255, 255, 255); stroke-opacity: 1; stroke-width: 1px;"/><path class="ygrid crisp" transform="translate(0,420.59)" d="M223,0h497" style="stroke: rgb(255, 255, 255); stroke-opacity: 1; stroke-width: 1px;"/><path class="ygrid crisp" transform="translate(0,396.36)" d="M223,0h497" style="stroke: rgb(255, 255, 255); stroke-opacity: 1; stroke-width: 1px;"/><path class="ygrid crisp" transform="translate(0,372.12)" d="M223,0h497" style="stroke: rgb(255, 255, 255); stroke-opacity: 1; stroke-width: 1px;"/><path class="ygrid crisp" transform="translate(0,347.88)" d="M223,0h497" style="stroke: rgb(255, 255, 255); stroke-opacity: 1; stroke-width: 1px;"/><path class="ygrid crisp" transform="translate(0,323.64)" d="M223,0h497" style="stroke: rgb(255, 255, 255); stroke-opacity: 1; stroke-width: 1px;"/><path class="ygrid crisp" transform="translate(0,299.40999999999997)" d="M223,0h497" style="stroke: rgb(255, 255, 255); stroke-opacity: 1; stroke-width: 1px;"/><path class="ygrid crisp" transform="translate(0,275.16999999999996)" d="M223,0h497" style="stroke: rgb(255, 255, 255); stroke-opacity: 1; stroke-width: 1px;"/><path class="ygrid crisp" transform="translate(0,250.93)" d="M223,0h497" style="stroke: rgb(255, 255, 255); stroke-opacity: 1; stroke-width: 1px;"/><path class="ygrid crisp" transform="translate(0,226.7)" d="M223,0h497" style="stroke: rgb(255, 255, 255); stroke-opacity: 1; stroke-width: 1px;"/><path class="ygrid crisp" transform="translate(0,202.45999999999998)" d="M223,0h497" style="stroke: rgb(255, 255, 255); stroke-opacity: 1; stroke-width: 1px;"/><path class="ygrid crisp" transform="translate(0,178.22)" d="M223,0h497" style="stroke: rgb(255, 255, 255); stroke-opacity: 1; stroke-width: 1px;"/><path class="ygrid crisp" transform="translate(0,153.99)" d="M223,0h497" style="stroke: rgb(255, 255, 255); stroke-opacity: 1; stroke-width: 1px;"/><path class="ygrid crisp" transform="translate(0,129.75)" d="M223,0h497" style="stroke: rgb(255, 255, 255); stroke-opacity: 1; stroke-width: 1px;"/></g></g><g class="zerolinelayer"/><path class="xlines-below"/><path class="ylines-below"/><g class="overlines-below"/><g class="xaxislayer-below"/><g class="yaxislayer-below"/><g class="overaxes-below"/><g class="plot" transform="translate(223,100)" clip-path="url(#clipb7bb1exyplot)"><g class="scatterlayer mlayer"><g class="trace scatter tracecad92c" style="stroke-miterlimit: 2; opacity: 1;"><g class="fills"/><g class="errorbars"/><g class="lines"/><g class="points"><path class="point" transform="translate(28.6,490.25)" d="M3,0A3,3 0 1,1 0,-3A3,3 0 0,1 3,0Z" style="opacity: 1; stroke-width: 0px; fill: rgb(8, 81, 156); fill-opacity: 1;"/><path class="point" transform="translate(56.09,466.01)" d="M3,0A3,3 0 1,1 0,-3A3,3 0 0,1 3,0Z" style="opacity: 1; stroke-width: 0px; fill: rgb(8, 81, 156); fill-opacity: 1;"/><path class="point" transform="translate(72.58,441.78)" d="M3,0A3,3 0 1,1 0,-3A3,3 0 0,1 3,0Z" style="opacity: 1; stroke-width: 0px; fill: rgb(8, 81, 156); fill-opacity: 1;"/><path class="point" transform="translate(100.07,417.54)" d="M3,0A3,3 0 1,1 0,-3A3,3 0 0,1 3,0Z" style="opacity: 1; stroke-width: 0px; fill: rgb(8, 81, 156); fill-opacity: 1;"/><path class="point" transform="translate(111.06,393.3)" d="M3,0A3,3 0 1,1 0,-3A3,3 0 0,1 3,0Z" style="opacity: 1; stroke-width: 0px; fill: rgb(8, 81, 156); fill-opacity: 1;"/><path class="point" transform="translate(111.06,369.07)" d="M3,0A3,3 0 1,1 0,-3A3,3 0 0,1 3,0Z" style="opacity: 1; stroke-width: 0px; fill: rgb(8, 81, 156); fill-opacity: 1;"/><path class="point" transform="translate(138.55,344.83)" d="M3,0A3,3 0 1,1 0,-3A3,3 0 0,1 3,0Z" style="opacity: 1; stroke-width: 0px; fill: rgb(8, 81, 156); fill-opacity: 1;"/><path class="point" transform="translate(144.05,320.59)" d="M3,0A3,3 0 1,1 0,-3A3,3 0 0,1 3,0Z" style="opacity: 1; stroke-width: 0px; fill: rgb(8, 81, 156); fill-opacity: 1;"/><path class="point" transform="translate(166.04,296.36)" d="M3,0A3,3 0 1,1 0,-3A3,3 0 0,1 3,0Z" style="opacity: 1; stroke-width: 0px; fill: rgb(8, 81, 156); fill-opacity: 1;"/><path class="point" transform="translate(168.79,272.12)" d="M3,0A3,3 0 1,1 0,-3A3,3 0 0,1 3,0Z" style="opacity: 1; stroke-width: 0px; fill: rgb(8, 81, 156); fill-opacity: 1;"/><path class="point" transform="translate(193.52,247.88)" d="M3,0A3,3 0 1,1 0,-3A3,3 0 0,1 3,0Z" style="opacity: 1; stroke-width: 0px; fill: rgb(8, 81, 156); fill-opacity: 1;"/><path class="point" transform="translate(193.52,223.64)" d="M3,0A3,3 0 1,1 0,-3A3,3 0 0,1 3,0Z" style="opacity: 1; stroke-width: 0px; fill: rgb(8, 81, 156); fill-opacity: 1;"/><path class="point" transform="translate(193.52,199.41)" d="M3,0A3,3 0 1,1 0,-3A3,3 0 0,1 3,0Z" style="opacity: 1; stroke-width: 0px; fill: rgb(8, 81, 156); fill-opacity: 1;"/><path class="point" transform="translate(193.52,175.17)" d="M3,0A3,3 0 1,1 0,-3A3,3 0 0,1 3,0Z" style="opacity: 1; stroke-width: 0px; fill: rgb(8, 81, 156); fill-opacity: 1;"/><path class="point" transform="translate(207.27,150.93)" d="M3,0A3,3 0 1,1 0,-3A3,3 0 0,1 3,0Z" style="opacity: 1; stroke-width: 0px; fill: rgb(8, 81, 156); fill-opacity: 1;"/><path class="point" transform="translate(248.5,126.7)" d="M3,0A3,3 0 1,1 0,-3A3,3 0 0,1 3,0Z" style="opacity: 1; stroke-width: 0px; fill: rgb(8, 81, 156); fill-opacity: 1;"/><path class="point" transform="translate(266.83,102.46)" d="M3,0A3,3 0 1,1 0,-3A3,3 0 0,1 3,0Z" style="opacity: 1; stroke-width: 0px; fill: rgb(8, 81, 156); fill-opacity: 1;"/><path class="point" transform="translate(330.96,78.22)" d="M3,0A3,3 0 1,1 0,-3A3,3 0 0,1 3,0Z" style="opacity: 1; stroke-width: 0px; fill: rgb(8, 81, 156); fill-opacity: 1;"/><path class="point" transform="translate(330.96,53.99)" d="M3,0A3,3 0 1,1 0,-3A3,3 0 0,1 3,0Z" style="opacity: 1; stroke-width: 0px; fill: rgb(8, 81, 156); fill-opacity: 1;"/><path class="point" transform="translate(468.4,29.75)" d="M3,0A3,3 0 1,1 0,-3A3,3 0 0,1 3,0Z" style="opacity: 1; stroke-width: 0px; fill: rgb(8, 81, 156); fill-opacity: 1;"/></g><g class="text"/></g></g></g><g class="overplot"/><path class="xlines-above crisp" d="M0,0" style="fill: none;"/><path class="ylines-above crisp" d="M0,0" style="fill: none;"/><g class="overlines-above"/><g class="xaxislayer-above"><g class="xtick"><text text-anchor="middle" x="0" y="635" transform="translate(251.6,0)" style="font-family: 'Open Sans', verdana, arial, sans-serif; font-size: 14px; fill: rgb(105, 105, 105); fill-opacity: 1; white-space: pre; opacity: 1;">$50k</text></g><g class="xtick"><text text-anchor="middle" x="0" y="635" style="font-family: 'Open Sans', verdana, arial, sans-serif; font-size: 14px; fill: rgb(105, 105, 105); fill-opacity: 1; white-space: pre; opacity: 1;" transform="translate(361.55,0)">$60k</text></g><g class="xtick"><text text-anchor="middle" x="0" y="635" style="font-family: 'Open Sans', verdana, arial, sans-serif; font-size: 14px; fill: rgb(105, 105, 105); fill-opacity: 1; white-space: pre; opacity: 1;" transform="translate(471.5,0)">$70k</text></g><g class="xtick"><text text-anchor="middle" x="0" y="635" style="font-family: 'Open Sans', verdana, arial, sans-serif; font-size: 14px; fill: rgb(105, 105, 105); fill-opacity: 1; white-space: pre; opacity: 1;" transform="translate(581.45,0)">$80k</text></g><g class="xtick"><text text-anchor="middle" x="0" y="635" style="font-family: 'Open Sans', verdana, arial, sans-serif; font-size: 14px; fill: rgb(105, 105, 105); fill-opacity: 1; white-space: pre; opacity: 1;" transform="translate(691.4,0)">$90k</text></g></g><g class="yaxislayer-above"><g class="ytick"><text text-anchor="end" x="222" y="4.8999999999999995" transform="translate(0,590.25)" style="font-family: 'Open Sans', verdana, arial, sans-serif; font-size: 14px; fill: rgb(105, 105, 105); fill-opacity: 1; white-space: pre; opacity: 1;">Totaltech</text></g><g class="ytick"><text text-anchor="end" x="222" y="4.8999999999999995" transform="translate(0,566.01)" style="font-family: 'Open Sans', verdana, arial, sans-serif; font-size: 14px; fill: rgb(105, 105, 105); fill-opacity: 1; white-space: pre; opacity: 1;">Payco Technology S De ...</text></g><g class="ytick"><text text-anchor="end" x="222" y="4.8999999999999995" transform="translate(0,541.78)" style="font-family: 'Open Sans', verdana, arial, sans-serif; font-size: 14px; fill: rgb(105, 105, 105); fill-opacity: 1; white-space: pre; opacity: 1;">Everis</text></g><g class="ytick"><text text-anchor="end" x="222" y="4.8999999999999995" transform="translate(0,517.54)" style="font-family: 'Open Sans', verdana, arial, sans-serif; font-size: 14px; fill: rgb(105, 105, 105); fill-opacity: 1; white-space: pre; opacity: 1;">Randstad</text></g><g class="ytick"><text text-anchor="end" x="222" y="4.8999999999999995" transform="translate(0,493.3)" style="font-family: 'Open Sans', verdana, arial, sans-serif; font-size: 14px; fill: rgb(105, 105, 105); fill-opacity: 1; white-space: pre; opacity: 1;">Human Staff</text></g><g class="ytick"><text text-anchor="end" x="222" y="4.8999999999999995" transform="translate(0,469.07)" style="font-family: 'Open Sans', verdana, arial, sans-serif; font-size: 14px; fill: rgb(105, 105, 105); fill-opacity: 1; white-space: pre; opacity: 1;">Sygno</text></g><g class="ytick"><text text-anchor="end" x="222" y="4.8999999999999995" transform="translate(0,444.83)" style="font-family: 'Open Sans', verdana, arial, sans-serif; font-size: 14px; fill: rgb(105, 105, 105); fill-opacity: 1; white-space: pre; opacity: 1;">Grupo Industrial Miner...</text></g><g class="ytick"><text text-anchor="end" x="222" y="4.8999999999999995" transform="translate(0,420.59)" style="font-family: 'Open Sans', verdana, arial, sans-serif; font-size: 14px; fill: rgb(105, 105, 105); fill-opacity: 1; white-space: pre; opacity: 1;">Kode It S.C.</text></g><g class="ytick"><text text-anchor="end" x="222" y="4.8999999999999995" transform="translate(0,396.36)" style="font-family: 'Open Sans', verdana, arial, sans-serif; font-size: 14px; fill: rgb(105, 105, 105); fill-opacity: 1; white-space: pre; opacity: 1;">Alia</text></g><g class="ytick"><text text-anchor="end" x="222" y="4.8999999999999995" transform="translate(0,372.12)" style="font-family: 'Open Sans', verdana, arial, sans-serif; font-size: 14px; fill: rgb(105, 105, 105); fill-opacity: 1; white-space: pre; opacity: 1;">Manpower, S.A. De C.V.</text></g><g class="ytick"><text text-anchor="end" x="222" y="4.8999999999999995" transform="translate(0,347.88)" style="font-family: 'Open Sans', verdana, arial, sans-serif; font-size: 14px; fill: rgb(105, 105, 105); fill-opacity: 1; white-space: pre; opacity: 1;">Inetum Holding Mexico ...</text></g><g class="ytick"><text text-anchor="end" x="222" y="4.8999999999999995" transform="translate(0,323.64)" style="font-family: 'Open Sans', verdana, arial, sans-serif; font-size: 14px; fill: rgb(105, 105, 105); fill-opacity: 1; white-space: pre; opacity: 1;">Cognizant Technology S...</text></g><g class="ytick"><text text-anchor="end" x="222" y="4.8999999999999995" transform="translate(0,299.40999999999997)" style="font-family: 'Open Sans', verdana, arial, sans-serif; font-size: 14px; fill: rgb(105, 105, 105); fill-opacity: 1; white-space: pre; opacity: 1;">Santander</text></g><g class="ytick"><text text-anchor="end" x="222" y="4.8999999999999995" transform="translate(0,275.16999999999996)" style="font-family: 'Open Sans', verdana, arial, sans-serif; font-size: 14px; fill: rgb(105, 105, 105); fill-opacity: 1; white-space: pre; opacity: 1;">Work Cast Solutions Sa...</text></g><g class="ytick"><text text-anchor="end" x="222" y="4.8999999999999995" transform="translate(0,250.93)" style="font-family: 'Open Sans', verdana, arial, sans-serif; font-size: 14px; fill: rgb(105, 105, 105); fill-opacity: 1; white-space: pre; opacity: 1;">Monterrey It Cluster</text></g><g class="ytick"><text text-anchor="end" x="222" y="4.8999999999999995" transform="translate(0,226.7)" style="font-family: 'Open Sans', verdana, arial, sans-serif; font-size: 14px; fill: rgb(105, 105, 105); fill-opacity: 1; white-space: pre; opacity: 1;">Softtek</text></g><g class="ytick"><text text-anchor="end" x="222" y="4.8999999999999995" transform="translate(0,202.45999999999998)" style="font-family: 'Open Sans', verdana, arial, sans-serif; font-size: 14px; fill: rgb(105, 105, 105); fill-opacity: 1; white-space: pre; opacity: 1;">Enterprise Solutions, ...</text></g><g class="ytick"><text text-anchor="end" x="222" y="4.8999999999999995" transform="translate(0,178.22)" style="font-family: 'Open Sans', verdana, arial, sans-serif; font-size: 14px; fill: rgb(105, 105, 105); fill-opacity: 1; white-space: pre; opacity: 1;">Addon Technologies Inc.</text></g><g class="ytick"><text text-anchor="end" x="222" y="4.8999999999999995" transform="translate(0,153.99)" style="font-family: 'Open Sans', verdana, arial, sans-serif; font-size: 14px; fill: rgb(105, 105, 105); fill-opacity: 1; white-space: pre; opacity: 1;">Caspex Corp</text></g><g class="ytick"><text text-anchor="end" x="222" y="4.8999999999999995" transform="translate(0,129.75)" style="font-family: 'Open Sans', verdana, arial, sans-serif; font-size: 14px; fill: rgb(105, 105, 105); fill-opacity: 1; white-space: pre; opacity: 1;">Ecosistemex S. De R.L....</text></g></g><g class="overaxes-above"/></g></g><g class="polarlayer"/><g class="smithlayer"/><g class="ternarylayer"/><g class="geolayer"/><g class="funnelarealayer"/><g class="pielayer"/><g class="iciclelayer"/><g class="treemaplayer"/><g class="sunburstlayer"/><g class="glimages"/><defs id="topdefs-b7bb1e"><g class="clips"/></defs><g class="layer-above"><g class="imagelayer"/><g class="shapelayer"><g class="shape-group" data-index="0" clip-path="url(#clipb7bb1exy)"><path data-index="0" fill-rule="evenodd" d="M251.6,590.25L251.6,590.25" style="opacity: 1; stroke: rgb(8, 81, 156); stroke-opacity: 1; fill: rgb(0, 0, 0); fill-opacity: 0; stroke-width: 2px;"/></g><g class="shape-group" data-index="1" clip-path="url(#clipb7bb1exy)"><path data-index="1" fill-rule="evenodd" d="M251.6,566.01L279.09000000000003,566.01" style="opacity: 1; stroke: rgb(8, 81, 156); stroke-opacity: 1; fill: rgb(0, 0, 0); fill-opacity: 0; stroke-width: 2px;"/></g><g class="shape-group" data-index="2" clip-path="url(#clipb7bb1exy)"><path data-index="2" fill-rule="evenodd" d="M251.6,541.78L295.58,541.78" style="opacity: 1; stroke: rgb(8, 81, 156); stroke-opacity: 1; fill: rgb(0, 0, 0); fill-opacity: 0; stroke-width: 2px;"/></g><g class="shape-group" data-index="3" clip-path="url(#clipb7bb1exy)"><path data-index="3" fill-rule="evenodd" d="M251.6,517.54L323.07,517.54" style="opacity: 1; stroke: rgb(8, 81, 156); stroke-opacity: 1; fill: rgb(0, 0, 0); fill-opacity: 0; stroke-width: 2px;"/></g><g class="shape-group" data-index="4" clip-path="url(#clipb7bb1exy)"><path data-index="4" fill-rule="evenodd" d="M251.6,493.3L334.06,493.3" style="opacity: 1; stroke: rgb(8, 81, 156); stroke-opacity: 1; fill: rgb(0, 0, 0); fill-opacity: 0; stroke-width: 2px;"/></g><g class="shape-group" data-index="5" clip-path="url(#clipb7bb1exy)"><path data-index="5" fill-rule="evenodd" d="M251.6,469.07L334.06,469.07" style="opacity: 1; stroke: rgb(8, 81, 156); stroke-opacity: 1; fill: rgb(0, 0, 0); fill-opacity: 0; stroke-width: 2px;"/></g><g class="shape-group" data-index="6" clip-path="url(#clipb7bb1exy)"><path data-index="6" fill-rule="evenodd" d="M251.6,444.83L361.55,444.83" style="opacity: 1; stroke: rgb(8, 81, 156); stroke-opacity: 1; fill: rgb(0, 0, 0); fill-opacity: 0; stroke-width: 2px;"/></g><g class="shape-group" data-index="7" clip-path="url(#clipb7bb1exy)"><path data-index="7" fill-rule="evenodd" d="M251.6,420.59L367.05,420.59" style="opacity: 1; stroke: rgb(8, 81, 156); stroke-opacity: 1; fill: rgb(0, 0, 0); fill-opacity: 0; stroke-width: 2px;"/></g><g class="shape-group" data-index="8" clip-path="url(#clipb7bb1exy)"><path data-index="8" fill-rule="evenodd" d="M251.6,396.36L389.03999999999996,396.36" style="opacity: 1; stroke: rgb(8, 81, 156); stroke-opacity: 1; fill: rgb(0, 0, 0); fill-opacity: 0; stroke-width: 2px;"/></g><g class="shape-group" data-index="9" clip-path="url(#clipb7bb1exy)"><path data-index="9" fill-rule="evenodd" d="M251.6,372.12L391.78999999999996,372.12" style="opacity: 1; stroke: rgb(8, 81, 156); stroke-opacity: 1; fill: rgb(0, 0, 0); fill-opacity: 0; stroke-width: 2px;"/></g><g class="shape-group" data-index="10" clip-path="url(#clipb7bb1exy)"><path data-index="10" fill-rule="evenodd" d="M251.6,347.88L416.52,347.88" style="opacity: 1; stroke: rgb(8, 81, 156); stroke-opacity: 1; fill: rgb(0, 0, 0); fill-opacity: 0; stroke-width: 2px;"/></g><g class="shape-group" data-index="11" clip-path="url(#clipb7bb1exy)"><path data-index="11" fill-rule="evenodd" d="M251.6,323.64L416.52,323.64" style="opacity: 1; stroke: rgb(8, 81, 156); stroke-opacity: 1; fill: rgb(0, 0, 0); fill-opacity: 0; stroke-width: 2px;"/></g><g class="shape-group" data-index="12" clip-path="url(#clipb7bb1exy)"><path data-index="12" fill-rule="evenodd" d="M251.6,299.40999999999997L416.52,299.40999999999997" style="opacity: 1; stroke: rgb(8, 81, 156); stroke-opacity: 1; fill: rgb(0, 0, 0); fill-opacity: 0; stroke-width: 2px;"/></g><g class="shape-group" data-index="13" clip-path="url(#clipb7bb1exy)"><path data-index="13" fill-rule="evenodd" d="M251.6,275.16999999999996L416.52,275.16999999999996" style="opacity: 1; stroke: rgb(8, 81, 156); stroke-opacity: 1; fill: rgb(0, 0, 0); fill-opacity: 0; stroke-width: 2px;"/></g><g class="shape-group" data-index="14" clip-path="url(#clipb7bb1exy)"><path data-index="14" fill-rule="evenodd" d="M251.6,250.93L430.27,250.93" style="opacity: 1; stroke: rgb(8, 81, 156); stroke-opacity: 1; fill: rgb(0, 0, 0); fill-opacity: 0; stroke-width: 2px;"/></g><g class="shape-group" data-index="15" clip-path="url(#clipb7bb1exy)"><path data-index="15" fill-rule="evenodd" d="M251.6,226.7L471.5,226.7" style="opacity: 1; stroke: rgb(8, 81, 156); stroke-opacity: 1; fill: rgb(0, 0, 0); fill-opacity: 0; stroke-width: 2px;"/></g><g class="shape-group" data-index="16" clip-path="url(#clipb7bb1exy)"><path data-index="16" fill-rule="evenodd" d="M251.6,202.45999999999998L489.83,202.45999999999998" style="opacity: 1; stroke: rgb(8, 81, 156); stroke-opacity: 1; fill: rgb(0, 0, 0); fill-opacity: 0; stroke-width: 2px;"/></g><g class="shape-group" data-index="17" clip-path="url(#clipb7bb1exy)"><path data-index="17" fill-rule="evenodd" d="M251.6,178.22L553.96,178.22" style="opacity: 1; stroke: rgb(8, 81, 156); stroke-opacity: 1; fill: rgb(0, 0, 0); fill-opacity: 0; stroke-width: 2px;"/></g><g class="shape-group" data-index="18" clip-path="url(#clipb7bb1exy)"><path data-index="18" fill-rule="evenodd" d="M251.6,153.99L553.96,153.99" style="opacity: 1; stroke: rgb(8, 81, 156); stroke-opacity: 1; fill: rgb(0, 0, 0); fill-opacity: 0; stroke-width: 2px;"/></g><g class="shape-group" data-index="19" clip-path="url(#clipb7bb1exy)"><path data-index="19" fill-rule="evenodd" d="M251.6,129.75L691.4,129.75" style="opacity: 1; stroke: rgb(8, 81, 156); stroke-opacity: 1; fill: rgb(0, 0, 0); fill-opacity: 0; stroke-width: 2px;"/></g></g></g><g class="infolayer"><g class="g-gtitle"><text class="gtitle" x="400" y="50" text-anchor="middle" dy="0em" style="font-family: 'Open Sans', verdana, arial, sans-serif; font-size: 20px; fill: rgb(105, 105, 105); opacity: 1; font-weight: normal; white-space: pre;"><tspan style="font-weight:bold">Top 20 Companies Paying The Highest Salaries</tspan></text></g><g class="g-xtitle"><text class="xtitle" x="471.5" y="664.4" text-anchor="middle" style="font-family: 'Open Sans', verdana, arial, sans-serif; font-size: 17px; fill: rgb(105, 105, 105); opacity: 1; font-weight: normal; white-space: pre;"><tspan style="font-weight:bold">Average Monthly Salary (MXN)</tspan></text></g><g class="g-ytitle" transform="translate(4.119140625,0)"><text class="ytitle" transform="rotate(-90,12.881249999999994,360)" x="12.881249999999994" y="360" text-anchor="middle" style="font-family: 'Open Sans', verdana, arial, sans-serif; font-size: 17px; fill: rgb(105, 105, 105); opacity: 1; font-weight: normal; white-space: pre;"><tspan style="font-weight:bold">Company</tspan></text></g></g></svg>