<svg class="main-svg" xmlns="http://www.w3.org/2000/svg" xmlns:xlink="http://www.w3.org/1999/xlink" width="2000" height="1100" style="" viewBox="0 0 1000 550"><rect x="0" y="0" width="1000" height="550" style="fill: rgb(255, 255, 255); fill-opacity: 1;"/><defs id="defs-c3e25c"><g class="clips"><clipPath id="clipc3e25cxyplot" class="plotclip"><rect width="840" height="370"/></clipPath><clipPath class="axesclip" id="clipc3e25cx"><rect x="80" y="0" width="840" height="550"/></clipPath><clipPath class="axesclip" id="clipc3e25cy"><rect x="0" y="100" width="1000" height="370"/></clipPath><clipPath class="axesclip" id="clipc3e25cxy"><rect x="80" y="100" width="840" height="370"/></clipPath></g><g class="gradients"/><g class="patterns"/></defs><g class="bglayer"><rect class="bg" x="80" y="100" width="840" height="370" style="fill: rgb(229, 236, 246); fill-opacity: 1; stroke-width: 0;"/></g><g class="layer-below"><g class="imagelayer"/><g class="shapelayer"/></g><g class="cartesianlayer"><g class="subplot xy"><g class="layer-subplot"><g class="shapelayer"/><g class="imagelayer"/></g><g class="minor-gridlayer"><g class="x"/><g class="y"/></g><g class="gridlayer"><g class="x"/><g class="y"><path class="ygrid crisp" transform="translate(0,428.27)" d="M80,0h840" style="stroke: rgb(255, 255, 255); stroke-opacity: 1; stroke-width: 1px;"/><path class="ygrid crisp" transform="translate(0,389.55)" d="M80,0h840" style="stroke: rgb(255, 255, 255); stroke-opacity: 1; stroke-width: 1px;"/><path class="ygrid crisp" transform="translate(0,350.83000000000004)" d="M80,0h840" style="stroke: rgb(255, 255, 255); stroke-opacity: 1; stroke-width: 1px;"/><path class="ygrid crisp" transform="translate(0,312.1)" d="M80,0h840" style="stroke: rgb(255, 255, 255); stroke-opacity: 1; stroke-width: 1px;"/><path class="ygrid crisp" transform="translate(0,273.38)" d="M80,0h840" style="stroke: rgb(255, 255, 255); stroke-opacity: 1; stroke-width: 1px;"/><path class="ygrid crisp" transform="translate(0,234.66)" d="M80,0h840" style="stroke: rgb(255, 255, 255); stroke-opacity: 1; stroke-width: 1px;"/><path class="ygrid crisp" transform="translate(0,195.94)" d="M80,0h840" style="stroke: rgb(255, 255, 255); stroke-opacity: 1; stroke-width: 1px;"/><path class="ygrid crisp" transform="translate(0,157.22)" d="M80,0h840" style="stroke: rgb(255, 255, 255); stroke-opacity: 1; stroke-width: 1px;"/><path class="ygrid crisp" transform="translate(0,118.5)" d="M80,0h840" style="stroke: rgb(255, 255, 255); stroke-opacity: 1; stroke-width: 1px;"/></g></g><g class="zerolinelayer"><path class="yzl zl crisp" transform="translate(0,466.99)" d="M80,0h840" style="stroke: rgb(255, 255, 255); stroke-opacity: 1; stroke-width: 2px;"/></g><path class="xlines-below"/><path class="ylines-below"/><g class="overlines-below"/><g class="xaxislayer-below"/><g class="yaxislayer-below"/><g class="overaxes-below"/><g class="plot" transform="translate(80,100)" clip-path="url(#clipc3e25cxyplot)"><g class="boxlayer mlayer"><g class="trace boxes" style="opacity: 1;"><path class="box" d="M33.49,115.3H92.08M33.49,115.3H92.08V115.3H33.49ZM62.79,115.3V115.3M62.79,115.3V115.3M48.14,115.3H77.43M48.14,115.3H77.43" style="vector-effect: none; stroke-width: 2px; stroke: rgb(8, 48, 107); stroke-opacity: 1; fill: rgb(8, 48, 107); fill-opacity: 0.5;"/><g class="points"><path class="point" transform="translate(23.4,115.3)" d="M3,0A3,3 0 1,1 0,-3A3,3 0 0,1 3,0Z" style="opacity: 1; stroke-width: 0px; fill: rgb(8, 48, 107); fill-opacity: 1;"/></g></g><g class="trace boxes" style="opacity: 1;"><path class="box" d="M153.06,144.34H211.65M153.06,197.1H211.65V105.62H153.06ZM182.36,197.1V270.19M182.36,105.62V76.58M167.71,270.19H197M167.71,76.58H197" style="vector-effect: none; stroke-width: 2px; stroke: rgb(8, 81, 156); stroke-opacity: 1; fill: rgb(8, 81, 156); fill-opacity: 0.5;"/><g class="points"><path class="point" transform="translate(141.99,270.19)" d="M3,0A3,3 0 1,1 0,-3A3,3 0 0,1 3,0Z" style="opacity: 1; stroke-width: 0px; fill: rgb(8, 81, 156); fill-opacity: 1;"/><path class="point" transform="translate(133.74,210.17)" d="M3,0A3,3 0 1,1 0,-3A3,3 0 0,1 3,0Z" style="opacity: 1; stroke-width: 0px; fill: rgb(8, 81, 156); fill-opacity: 1;"/><path class="point" transform="translate(144.55,192.74)" d="M3,0A3,3 0 1,1 0,-3A3,3 0 0,1 3,0Z" style="opacity: 1; stroke-width: 0px; fill: rgb(8, 81, 156); fill-opacity: 1;"/><path class="point" transform="translate(131.81,192.74)" d="M3,0A3,3 0 1,1 0,-3A3,3 0 0,1 3,0Z" style="opacity: 1; stroke-width: 0px; fill: rgb(8, 81, 156); fill-opacity: 1;"/><path class="point" transform="translate(136.49,144.34)" d="M3,0A3,3 0 1,1 0,-3A3,3 0 0,1 3,0Z" style="opacity: 1; stroke-width: 0px; fill: rgb(8, 81, 156); fill-opacity: 1;"/><path class="point" transform="translate(142.51,115.3)" d="M3,0A3,3 0 1,1 0,-3A3,3 0 0,1 3,0Z" style="opacity: 1; stroke-width: 0px; fill: rgb(8, 81, 156); fill-opacity: 1;"/><path class="point" transform="translate(138.09,105.62)" d="M3,0A3,3 0 1,1 0,-3A3,3 0 0,1 3,0Z" style="opacity: 1; stroke-width: 0px; fill: rgb(8, 81, 156); fill-opacity: 1;"/><path class="point" transform="translate(140.94,105.62)" d="M3,0A3,3 0 1,1 0,-3A3,3 0 0,1 3,0Z" style="opacity: 1; stroke-width: 0px; fill: rgb(8, 81, 156); fill-opacity: 1;"/><path class="point" transform="translate(135.87,76.58)" d="M3,0A3,3 0 1,1 0,-3A3,3 0 0,1 3,0Z" style="opacity: 1; stroke-width: 0px; fill: rgb(8, 81, 156); fill-opacity: 1;"/></g></g><g class="trace boxes" style="opacity: 1;"><path class="box" d="M272.63,206.3H331.22M272.63,245.02H331.22V119.17H272.63ZM301.93,245.02V324.4M301.93,119.17V37.86M287.28,324.4H316.58M287.28,37.86H316.58" style="vector-effect: none; stroke-width: 2px; stroke: rgb(33, 113, 181); stroke-opacity: 1; fill: rgb(33, 113, 181); fill-opacity: 0.5;"/><g class="points"><path class="point" transform="translate(261.25,324.4)" d="M3,0A3,3 0 1,1 0,-3A3,3 0 0,1 3,0Z" style="opacity: 1; stroke-width: 0px; fill: rgb(33, 113, 181); fill-opacity: 1;"/><path class="point" transform="translate(254.41,324.4)" d="M3,0A3,3 0 1,1 0,-3A3,3 0 0,1 3,0Z" style="opacity: 1; stroke-width: 0px; fill: rgb(33, 113, 181); fill-opacity: 1;"/><path class="point" transform="translate(262.31,299.23)" d="M3,0A3,3 0 1,1 0,-3A3,3 0 0,1 3,0Z" style="opacity: 1; stroke-width: 0px; fill: rgb(33, 113, 181); fill-opacity: 1;"/><path class="point" transform="translate(253.4,299.23)" d="M3,0A3,3 0 1,1 0,-3A3,3 0 0,1 3,0Z" style="opacity: 1; stroke-width: 0px; fill: rgb(33, 113, 181); fill-opacity: 1;"/><path class="point" transform="translate(256.59,293.42)" d="M3,0A3,3 0 1,1 0,-3A3,3 0 0,1 3,0Z" style="opacity: 1; stroke-width: 0px; fill: rgb(33, 113, 181); fill-opacity: 1;"/><path class="point" transform="translate(261.05,288.58)" d="M3,0A3,3 0 1,1 0,-3A3,3 0 0,1 3,0Z" style="opacity: 1; stroke-width: 0px; fill: rgb(33, 113, 181); fill-opacity: 1;"/><path class="point" transform="translate(257.77,270.19)" d="M3,0A3,3 0 1,1 0,-3A3,3 0 0,1 3,0Z" style="opacity: 1; stroke-width: 0px; fill: rgb(33, 113, 181); fill-opacity: 1;"/><path class="point" transform="translate(259.86,260.51)" d="M3,0A3,3 0 1,1 0,-3A3,3 0 0,1 3,0Z" style="opacity: 1; stroke-width: 0px; fill: rgb(33, 113, 181); fill-opacity: 1;"/><path class="point" transform="translate(255.92,246.95)" d="M3,0A3,3 0 1,1 0,-3A3,3 0 0,1 3,0Z" style="opacity: 1; stroke-width: 0px; fill: rgb(33, 113, 181); fill-opacity: 1;"/><path class="point" transform="translate(253.02,245.02)" d="M3,0A3,3 0 1,1 0,-3A3,3 0 0,1 3,0Z" style="opacity: 1; stroke-width: 0px; fill: rgb(33, 113, 181); fill-opacity: 1;"/><path class="point" transform="translate(259.73,241.15)" d="M3,0A3,3 0 1,1 0,-3A3,3 0 0,1 3,0Z" style="opacity: 1; stroke-width: 0px; fill: rgb(33, 113, 181); fill-opacity: 1;"/><path class="point" transform="translate(255.46,237.27)" d="M3,0A3,3 0 1,1 0,-3A3,3 0 0,1 3,0Z" style="opacity: 1; stroke-width: 0px; fill: rgb(33, 113, 181); fill-opacity: 1;"/><path class="point" transform="translate(262.84,231.47)" d="M3,0A3,3 0 1,1 0,-3A3,3 0 0,1 3,0Z" style="opacity: 1; stroke-width: 0px; fill: rgb(33, 113, 181); fill-opacity: 1;"/><path class="point" transform="translate(249.43,231.47)" d="M3,0A3,3 0 1,1 0,-3A3,3 0 0,1 3,0Z" style="opacity: 1; stroke-width: 0px; fill: rgb(33, 113, 181); fill-opacity: 1;"/><path class="point" transform="translate(253.26,231.47)" d="M3,0A3,3 0 1,1 0,-3A3,3 0 0,1 3,0Z" style="opacity: 1; stroke-width: 0px; fill: rgb(33, 113, 181); fill-opacity: 1;"/><path class="point" transform="translate(265.38,221.78)" d="M3,0A3,3 0 1,1 0,-3A3,3 0 0,1 3,0Z" style="opacity: 1; stroke-width: 0px; fill: rgb(33, 113, 181); fill-opacity: 1;"/><path class="point" transform="translate(255.84,221.78)" d="M3,0A3,3 0 1,1 0,-3A3,3 0 0,1 3,0Z" style="opacity: 1; stroke-width: 0px; fill: rgb(33, 113, 181); fill-opacity: 1;"/><path class="point" transform="translate(250.63,212.1)" d="M3,0A3,3 0 1,1 0,-3A3,3 0 0,1 3,0Z" style="opacity: 1; stroke-width: 0px; fill: rgb(33, 113, 181); fill-opacity: 1;"/><path class="point" transform="translate(255.85,210.17)" d="M3,0A3,3 0 1,1 0,-3A3,3 0 0,1 3,0Z" style="opacity: 1; stroke-width: 0px; fill: rgb(33, 113, 181); fill-opacity: 1;"/><path class="point" transform="translate(257.86,202.42)" d="M3,0A3,3 0 1,1 0,-3A3,3 0 0,1 3,0Z" style="opacity: 1; stroke-width: 0px; fill: rgb(33, 113, 181); fill-opacity: 1;"/><path class="point" transform="translate(260.71,200.49)" d="M3,0A3,3 0 1,1 0,-3A3,3 0 0,1 3,0Z" style="opacity: 1; stroke-width: 0px; fill: rgb(33, 113, 181); fill-opacity: 1;"/><path class="point" transform="translate(258.62,198.55)" d="M3,0A3,3 0 1,1 0,-3A3,3 0 0,1 3,0Z" style="opacity: 1; stroke-width: 0px; fill: rgb(33, 113, 181); fill-opacity: 1;"/><path class="point" transform="translate(256.3,192.74)" d="M3,0A3,3 0 1,1 0,-3A3,3 0 0,1 3,0Z" style="opacity: 1; stroke-width: 0px; fill: rgb(33, 113, 181); fill-opacity: 1;"/><path class="point" transform="translate(253.31,163.7)" d="M3,0A3,3 0 1,1 0,-3A3,3 0 0,1 3,0Z" style="opacity: 1; stroke-width: 0px; fill: rgb(33, 113, 181); fill-opacity: 1;"/><path class="point" transform="translate(257.97,154.02)" d="M3,0A3,3 0 1,1 0,-3A3,3 0 0,1 3,0Z" style="opacity: 1; stroke-width: 0px; fill: rgb(33, 113, 181); fill-opacity: 1;"/><path class="point" transform="translate(256.3,144.34)" d="M3,0A3,3 0 1,1 0,-3A3,3 0 0,1 3,0Z" style="opacity: 1; stroke-width: 0px; fill: rgb(33, 113, 181); fill-opacity: 1;"/><path class="point" transform="translate(260.71,134.66)" d="M3,0A3,3 0 1,1 0,-3A3,3 0 0,1 3,0Z" style="opacity: 1; stroke-width: 0px; fill: rgb(33, 113, 181); fill-opacity: 1;"/><path class="point" transform="translate(257.45,132.73)" d="M3,0A3,3 0 1,1 0,-3A3,3 0 0,1 3,0Z" style="opacity: 1; stroke-width: 0px; fill: rgb(33, 113, 181); fill-opacity: 1;"/><path class="point" transform="translate(253.41,119.17)" d="M3,0A3,3 0 1,1 0,-3A3,3 0 0,1 3,0Z" style="opacity: 1; stroke-width: 0px; fill: rgb(33, 113, 181); fill-opacity: 1;"/><path class="point" transform="translate(252.33,115.3)" d="M3,0A3,3 0 1,1 0,-3A3,3 0 0,1 3,0Z" style="opacity: 1; stroke-width: 0px; fill: rgb(33, 113, 181); fill-opacity: 1;"/><path class="point" transform="translate(261.4,115.3)" d="M3,0A3,3 0 1,1 0,-3A3,3 0 0,1 3,0Z" style="opacity: 1; stroke-width: 0px; fill: rgb(33, 113, 181); fill-opacity: 1;"/><path class="point" transform="translate(253.36,115.3)" d="M3,0A3,3 0 1,1 0,-3A3,3 0 0,1 3,0Z" style="opacity: 1; stroke-width: 0px; fill: rgb(33, 113, 181); fill-opacity: 1;"/><path class="point" transform="translate(261.24,115.3)" d="M3,0A3,3 0 1,1 0,-3A3,3 0 0,1 3,0Z" style="opacity: 1; stroke-width: 0px; fill: rgb(33, 113, 181); fill-opacity: 1;"/><path class="point" transform="translate(259.21,105.62)" d="M3,0A3,3 0 1,1 0,-3A3,3 0 0,1 3,0Z" style="opacity: 1; stroke-width: 0px; fill: rgb(33, 113, 181); fill-opacity: 1;"/><path class="point" transform="translate(256.37,76.58)" d="M3,0A3,3 0 1,1 0,-3A3,3 0 0,1 3,0Z" style="opacity: 1; stroke-width: 0px; fill: rgb(33, 113, 181); fill-opacity: 1;"/><path class="point" transform="translate(254.99,66.9)" d="M3,0A3,3 0 1,1 0,-3A3,3 0 0,1 3,0Z" style="opacity: 1; stroke-width: 0px; fill: rgb(33, 113, 181); fill-opacity: 1;"/><path class="point" transform="translate(260.1,37.86)" d="M3,0A3,3 0 1,1 0,-3A3,3 0 0,1 3,0Z" style="opacity: 1; stroke-width: 0px; fill: rgb(33, 113, 181); fill-opacity: 1;"/><path class="point" transform="translate(257.53,37.86)" d="M3,0A3,3 0 1,1 0,-3A3,3 0 0,1 3,0Z" style="opacity: 1; stroke-width: 0px; fill: rgb(33, 113, 181); fill-opacity: 1;"/></g></g><g class="trace boxes" style="opacity: 1;"><path class="box" d="M392.21,218.88H450.8M392.21,245.02H450.8V192.74H392.21ZM421.5,245.02V314.72M421.5,192.74V192.74M406.85,314.72H436.15M406.85,192.74H436.15" style="vector-effect: none; stroke-width: 2px; stroke: rgb(66, 146, 198); stroke-opacity: 1; fill: rgb(66, 146, 198); fill-opacity: 0.5;"/><g class="points"><path class="point" transform="translate(381.84,314.72)" d="M3,0A3,3 0 1,1 0,-3A3,3 0 0,1 3,0Z" style="opacity: 1; stroke-width: 0px; fill: rgb(66, 146, 198); fill-opacity: 1;"/><path class="point" transform="translate(371.96,262.44)" d="M3,0A3,3 0 1,1 0,-3A3,3 0 0,1 3,0Z" style="opacity: 1; stroke-width: 0px; fill: rgb(66, 146, 198); fill-opacity: 1;"/><path class="point" transform="translate(384.37,245.02)" d="M3,0A3,3 0 1,1 0,-3A3,3 0 0,1 3,0Z" style="opacity: 1; stroke-width: 0px; fill: rgb(66, 146, 198); fill-opacity: 1;"/><path class="point" transform="translate(371.87,241.15)" d="M3,0A3,3 0 1,1 0,-3A3,3 0 0,1 3,0Z" style="opacity: 1; stroke-width: 0px; fill: rgb(66, 146, 198); fill-opacity: 1;"/><path class="point" transform="translate(375.98,221.78)" d="M3,0A3,3 0 1,1 0,-3A3,3 0 0,1 3,0Z" style="opacity: 1; stroke-width: 0px; fill: rgb(66, 146, 198); fill-opacity: 1;"/><path class="point" transform="translate(380.91,215.98)" d="M3,0A3,3 0 1,1 0,-3A3,3 0 0,1 3,0Z" style="opacity: 1; stroke-width: 0px; fill: rgb(66, 146, 198); fill-opacity: 1;"/><path class="point" transform="translate(377.31,210.17)" d="M3,0A3,3 0 1,1 0,-3A3,3 0 0,1 3,0Z" style="opacity: 1; stroke-width: 0px; fill: rgb(66, 146, 198); fill-opacity: 1;"/><path class="point" transform="translate(379.43,192.74)" d="M3,0A3,3 0 1,1 0,-3A3,3 0 0,1 3,0Z" style="opacity: 1; stroke-width: 0px; fill: rgb(66, 146, 198); fill-opacity: 1;"/><path class="point" transform="translate(375.64,76.58)" d="M3,0A3,3 0 1,1 0,-3A3,3 0 0,1 3,0Z" style="opacity: 1; stroke-width: 0px; fill: rgb(66, 146, 198); fill-opacity: 1;"/><path class="point" transform="translate(373.34,18.5)" d="M3,0A3,3 0 1,1 0,-3A3,3 0 0,1 3,0Z" style="opacity: 1; stroke-width: 0px; fill: rgb(66, 146, 198); fill-opacity: 1;"/></g></g><g class="trace boxes" style="opacity: 1;"><path class="box" d="M511.78,246.95H570.37M511.78,289.06H570.37V206.3H511.78ZM541.07,289.06V343.76M541.07,206.3V105.62M526.42,343.76H555.72M526.42,105.62H555.72" style="vector-effect: none; stroke-width: 2px; stroke: rgb(107, 174, 214); stroke-opacity: 1; fill: rgb(107, 174, 214); fill-opacity: 0.5;"/><g class="points"><path class="point" transform="translate(500.44,343.76)" d="M3,0A3,3 0 1,1 0,-3A3,3 0 0,1 3,0Z" style="opacity: 1; stroke-width: 0px; fill: rgb(107, 174, 214); fill-opacity: 1;"/><path class="point" transform="translate(492.75,324.22)" d="M3,0A3,3 0 1,1 0,-3A3,3 0 0,1 3,0Z" style="opacity: 1; stroke-width: 0px; fill: rgb(107, 174, 214); fill-opacity: 1;"/><path class="point" transform="translate(502.36,300.19)" d="M3,0A3,3 0 1,1 0,-3A3,3 0 0,1 3,0Z" style="opacity: 1; stroke-width: 0px; fill: rgb(107, 174, 214); fill-opacity: 1;"/><path class="point" transform="translate(491.11,299.23)" d="M3,0A3,3 0 1,1 0,-3A3,3 0 0,1 3,0Z" style="opacity: 1; stroke-width: 0px; fill: rgb(107, 174, 214); fill-opacity: 1;"/><path class="point" transform="translate(495.43,297.29)" d="M3,0A3,3 0 1,1 0,-3A3,3 0 0,1 3,0Z" style="opacity: 1; stroke-width: 0px; fill: rgb(107, 174, 214); fill-opacity: 1;"/><path class="point" transform="translate(500.75,289.55)" d="M3,0A3,3 0 1,1 0,-3A3,3 0 0,1 3,0Z" style="opacity: 1; stroke-width: 0px; fill: rgb(107, 174, 214); fill-opacity: 1;"/><path class="point" transform="translate(496.85,287.61)" d="M3,0A3,3 0 1,1 0,-3A3,3 0 0,1 3,0Z" style="opacity: 1; stroke-width: 0px; fill: rgb(107, 174, 214); fill-opacity: 1;"/><path class="point" transform="translate(499.68,275.99)" d="M3,0A3,3 0 1,1 0,-3A3,3 0 0,1 3,0Z" style="opacity: 1; stroke-width: 0px; fill: rgb(107, 174, 214); fill-opacity: 1;"/><path class="point" transform="translate(494.35,274.06)" d="M3,0A3,3 0 1,1 0,-3A3,3 0 0,1 3,0Z" style="opacity: 1; stroke-width: 0px; fill: rgb(107, 174, 214); fill-opacity: 1;"/><path class="point" transform="translate(490.84,260.51)" d="M3,0A3,3 0 1,1 0,-3A3,3 0 0,1 3,0Z" style="opacity: 1; stroke-width: 0px; fill: rgb(107, 174, 214); fill-opacity: 1;"/><path class="point" transform="translate(499.4,250.83)" d="M3,0A3,3 0 1,1 0,-3A3,3 0 0,1 3,0Z" style="opacity: 1; stroke-width: 0px; fill: rgb(107, 174, 214); fill-opacity: 1;"/><path class="point" transform="translate(494.51,246.95)" d="M3,0A3,3 0 1,1 0,-3A3,3 0 0,1 3,0Z" style="opacity: 1; stroke-width: 0px; fill: rgb(107, 174, 214); fill-opacity: 1;"/><path class="point" transform="translate(502.04,243.08)" d="M3,0A3,3 0 1,1 0,-3A3,3 0 0,1 3,0Z" style="opacity: 1; stroke-width: 0px; fill: rgb(107, 174, 214); fill-opacity: 1;"/><path class="point" transform="translate(489.96,241.15)" d="M3,0A3,3 0 1,1 0,-3A3,3 0 0,1 3,0Z" style="opacity: 1; stroke-width: 0px; fill: rgb(107, 174, 214); fill-opacity: 1;"/><path class="point" transform="translate(492.76,237.27)" d="M3,0A3,3 0 1,1 0,-3A3,3 0 0,1 3,0Z" style="opacity: 1; stroke-width: 0px; fill: rgb(107, 174, 214); fill-opacity: 1;"/><path class="point" transform="translate(503.81,228.56)" d="M3,0A3,3 0 1,1 0,-3A3,3 0 0,1 3,0Z" style="opacity: 1; stroke-width: 0px; fill: rgb(107, 174, 214); fill-opacity: 1;"/><path class="point" transform="translate(495.62,217.91)" d="M3,0A3,3 0 1,1 0,-3A3,3 0 0,1 3,0Z" style="opacity: 1; stroke-width: 0px; fill: rgb(107, 174, 214); fill-opacity: 1;"/><path class="point" transform="translate(492.27,202.42)" d="M3,0A3,3 0 1,1 0,-3A3,3 0 0,1 3,0Z" style="opacity: 1; stroke-width: 0px; fill: rgb(107, 174, 214); fill-opacity: 1;"/><path class="point" transform="translate(495.34,192.74)" d="M3,0A3,3 0 1,1 0,-3A3,3 0 0,1 3,0Z" style="opacity: 1; stroke-width: 0px; fill: rgb(107, 174, 214); fill-opacity: 1;"/><path class="point" transform="translate(497.02,183.06)" d="M3,0A3,3 0 1,1 0,-3A3,3 0 0,1 3,0Z" style="opacity: 1; stroke-width: 0px; fill: rgb(107, 174, 214); fill-opacity: 1;"/><path class="point" transform="translate(499.38,173.38)" d="M3,0A3,3 0 1,1 0,-3A3,3 0 0,1 3,0Z" style="opacity: 1; stroke-width: 0px; fill: rgb(107, 174, 214); fill-opacity: 1;"/><path class="point" transform="translate(497.67,124.98)" d="M3,0A3,3 0 1,1 0,-3A3,3 0 0,1 3,0Z" style="opacity: 1; stroke-width: 0px; fill: rgb(107, 174, 214); fill-opacity: 1;"/><path class="point" transform="translate(495.78,105.62)" d="M3,0A3,3 0 1,1 0,-3A3,3 0 0,1 3,0Z" style="opacity: 1; stroke-width: 0px; fill: rgb(107, 174, 214); fill-opacity: 1;"/></g></g><g class="trace boxes" style="opacity: 1;"><path class="box" d="M631.35,260.51H689.94M631.35,279.87H689.94V239.21H631.35ZM660.64,279.87V312.78M660.64,239.21V204.36M646,312.78H675.29M646,204.36H675.29" style="vector-effect: none; stroke-width: 2px; stroke: rgb(158, 202, 225); stroke-opacity: 1; fill: rgb(158, 202, 225); fill-opacity: 0.5;"/><g class="points"><path class="point" transform="translate(619.33,341.82)" d="M3,0A3,3 0 1,1 0,-3A3,3 0 0,1 3,0Z" style="opacity: 1; stroke-width: 0px; fill: rgb(158, 202, 225); fill-opacity: 1;"/><path class="point" transform="translate(613.73,312.78)" d="M3,0A3,3 0 1,1 0,-3A3,3 0 0,1 3,0Z" style="opacity: 1; stroke-width: 0px; fill: rgb(158, 202, 225); fill-opacity: 1;"/><path class="point" transform="translate(620.6,303.1)" d="M3,0A3,3 0 1,1 0,-3A3,3 0 0,1 3,0Z" style="opacity: 1; stroke-width: 0px; fill: rgb(158, 202, 225); fill-opacity: 1;"/><path class="point" transform="translate(612.22,301.16)" d="M3,0A3,3 0 1,1 0,-3A3,3 0 0,1 3,0Z" style="opacity: 1; stroke-width: 0px; fill: rgb(158, 202, 225); fill-opacity: 1;"/><path class="point" transform="translate(615.34,299.23)" d="M3,0A3,3 0 1,1 0,-3A3,3 0 0,1 3,0Z" style="opacity: 1; stroke-width: 0px; fill: rgb(158, 202, 225); fill-opacity: 1;"/><path class="point" transform="translate(619.64,298.07)" d="M3,0A3,3 0 1,1 0,-3A3,3 0 0,1 3,0Z" style="opacity: 1; stroke-width: 0px; fill: rgb(158, 202, 225); fill-opacity: 1;"/><path class="point" transform="translate(616.45,279.87)" d="M3,0A3,3 0 1,1 0,-3A3,3 0 0,1 3,0Z" style="opacity: 1; stroke-width: 0px; fill: rgb(158, 202, 225); fill-opacity: 1;"/><path class="point" transform="translate(618.8,279.87)" d="M3,0A3,3 0 1,1 0,-3A3,3 0 0,1 3,0Z" style="opacity: 1; stroke-width: 0px; fill: rgb(158, 202, 225); fill-opacity: 1;"/><path class="point" transform="translate(614.33,277.93)" d="M3,0A3,3 0 1,1 0,-3A3,3 0 0,1 3,0Z" style="opacity: 1; stroke-width: 0px; fill: rgb(158, 202, 225); fill-opacity: 1;"/><path class="point" transform="translate(611.26,275.99)" d="M3,0A3,3 0 1,1 0,-3A3,3 0 0,1 3,0Z" style="opacity: 1; stroke-width: 0px; fill: rgb(158, 202, 225); fill-opacity: 1;"/><path class="point" transform="translate(618.54,270.18)" d="M3,0A3,3 0 1,1 0,-3A3,3 0 0,1 3,0Z" style="opacity: 1; stroke-width: 0px; fill: rgb(158, 202, 225); fill-opacity: 1;"/><path class="point" transform="translate(613.81,261.86)" d="M3,0A3,3 0 1,1 0,-3A3,3 0 0,1 3,0Z" style="opacity: 1; stroke-width: 0px; fill: rgb(158, 202, 225); fill-opacity: 1;"/><path class="point" transform="translate(621.93,260.51)" d="M3,0A3,3 0 1,1 0,-3A3,3 0 0,1 3,0Z" style="opacity: 1; stroke-width: 0px; fill: rgb(158, 202, 225); fill-opacity: 1;"/><path class="point" transform="translate(609.1,260.51)" d="M3,0A3,3 0 1,1 0,-3A3,3 0 0,1 3,0Z" style="opacity: 1; stroke-width: 0px; fill: rgb(158, 202, 225); fill-opacity: 1;"/><path class="point" transform="translate(612.18,258.57)" d="M3,0A3,3 0 1,1 0,-3A3,3 0 0,1 3,0Z" style="opacity: 1; stroke-width: 0px; fill: rgb(158, 202, 225); fill-opacity: 1;"/><path class="point" transform="translate(624.23,250.83)" d="M3,0A3,3 0 1,1 0,-3A3,3 0 0,1 3,0Z" style="opacity: 1; stroke-width: 0px; fill: rgb(158, 202, 225); fill-opacity: 1;"/><path class="point" transform="translate(614.55,250.83)" d="M3,0A3,3 0 1,1 0,-3A3,3 0 0,1 3,0Z" style="opacity: 1; stroke-width: 0px; fill: rgb(158, 202, 225); fill-opacity: 1;"/><path class="point" transform="translate(610,246.95)" d="M3,0A3,3 0 1,1 0,-3A3,3 0 0,1 3,0Z" style="opacity: 1; stroke-width: 0px; fill: rgb(158, 202, 225); fill-opacity: 1;"/><path class="point" transform="translate(614.61,241.15)" d="M3,0A3,3 0 1,1 0,-3A3,3 0 0,1 3,0Z" style="opacity: 1; stroke-width: 0px; fill: rgb(158, 202, 225); fill-opacity: 1;"/><path class="point" transform="translate(616.6,239.21)" d="M3,0A3,3 0 1,1 0,-3A3,3 0 0,1 3,0Z" style="opacity: 1; stroke-width: 0px; fill: rgb(158, 202, 225); fill-opacity: 1;"/><path class="point" transform="translate(618.41,239.21)" d="M3,0A3,3 0 1,1 0,-3A3,3 0 0,1 3,0Z" style="opacity: 1; stroke-width: 0px; fill: rgb(158, 202, 225); fill-opacity: 1;"/><path class="point" transform="translate(617.1,231.47)" d="M3,0A3,3 0 1,1 0,-3A3,3 0 0,1 3,0Z" style="opacity: 1; stroke-width: 0px; fill: rgb(158, 202, 225); fill-opacity: 1;"/><path class="point" transform="translate(615.73,223.72)" d="M3,0A3,3 0 1,1 0,-3A3,3 0 0,1 3,0Z" style="opacity: 1; stroke-width: 0px; fill: rgb(158, 202, 225); fill-opacity: 1;"/><path class="point" transform="translate(613.95,204.36)" d="M3,0A3,3 0 1,1 0,-3A3,3 0 0,1 3,0Z" style="opacity: 1; stroke-width: 0px; fill: rgb(158, 202, 225); fill-opacity: 1;"/><path class="point" transform="translate(616.69,154.02)" d="M3,0A3,3 0 1,1 0,-3A3,3 0 0,1 3,0Z" style="opacity: 1; stroke-width: 0px; fill: rgb(158, 202, 225); fill-opacity: 1;"/><path class="point" transform="translate(615.88,95.94)" d="M3,0A3,3 0 1,1 0,-3A3,3 0 0,1 3,0Z" style="opacity: 1; stroke-width: 0px; fill: rgb(158, 202, 225); fill-opacity: 1;"/></g></g><g class="trace boxes" style="opacity: 1;"><path class="box" d="M750.92,293.42H809.51M750.92,312.88H809.51V254.7H750.92ZM780.21,312.88V351.5M780.21,254.7V167.58M765.57,351.5H794.86M765.57,167.58H794.86" style="vector-effect: none; stroke-width: 2px; stroke: rgb(198, 219, 239); stroke-opacity: 1; fill: rgb(198, 219, 239); fill-opacity: 0.5;"/><g class="points"><path class="point" transform="translate(738.04,351.5)" d="M3,0A3,3 0 1,1 0,-3A3,3 0 0,1 3,0Z" style="opacity: 1; stroke-width: 0px; fill: rgb(198, 219, 239); fill-opacity: 1;"/><path class="point" transform="translate(734.07,339.88)" d="M3,0A3,3 0 1,1 0,-3A3,3 0 0,1 3,0Z" style="opacity: 1; stroke-width: 0px; fill: rgb(198, 219, 239); fill-opacity: 1;"/><path class="point" transform="translate(739.13,336.01)" d="M3,0A3,3 0 1,1 0,-3A3,3 0 0,1 3,0Z" style="opacity: 1; stroke-width: 0px; fill: rgb(198, 219, 239); fill-opacity: 1;"/><path class="point" transform="translate(732.94,336.01)" d="M3,0A3,3 0 1,1 0,-3A3,3 0 0,1 3,0Z" style="opacity: 1; stroke-width: 0px; fill: rgb(198, 219, 239); fill-opacity: 1;"/><path class="point" transform="translate(735.26,333.25)" d="M3,0A3,3 0 1,1 0,-3A3,3 0 0,1 3,0Z" style="opacity: 1; stroke-width: 0px; fill: rgb(198, 219, 239); fill-opacity: 1;"/><path class="point" transform="translate(738.51,332.14)" d="M3,0A3,3 0 1,1 0,-3A3,3 0 0,1 3,0Z" style="opacity: 1; stroke-width: 0px; fill: rgb(198, 219, 239); fill-opacity: 1;"/><path class="point" transform="translate(736.06,328.85)" d="M3,0A3,3 0 1,1 0,-3A3,3 0 0,1 3,0Z" style="opacity: 1; stroke-width: 0px; fill: rgb(198, 219, 239); fill-opacity: 1;"/><path class="point" transform="translate(738.07,328.27)" d="M3,0A3,3 0 1,1 0,-3A3,3 0 0,1 3,0Z" style="opacity: 1; stroke-width: 0px; fill: rgb(198, 219, 239); fill-opacity: 1;"/><path class="point" transform="translate(734.37,328.27)" d="M3,0A3,3 0 1,1 0,-3A3,3 0 0,1 3,0Z" style="opacity: 1; stroke-width: 0px; fill: rgb(198, 219, 239); fill-opacity: 1;"/><path class="point" transform="translate(731.74,327.3)" d="M3,0A3,3 0 1,1 0,-3A3,3 0 0,1 3,0Z" style="opacity: 1; stroke-width: 0px; fill: rgb(198, 219, 239); fill-opacity: 1;"/><path class="point" transform="translate(737.93,326.72)" d="M3,0A3,3 0 1,1 0,-3A3,3 0 0,1 3,0Z" style="opacity: 1; stroke-width: 0px; fill: rgb(198, 219, 239); fill-opacity: 1;"/><path class="point" transform="translate(733.85,326.33)" d="M3,0A3,3 0 1,1 0,-3A3,3 0 0,1 3,0Z" style="opacity: 1; stroke-width: 0px; fill: rgb(198, 219, 239); fill-opacity: 1;"/><path class="point" transform="translate(741.1,324.4)" d="M3,0A3,3 0 1,1 0,-3A3,3 0 0,1 3,0Z" style="opacity: 1; stroke-width: 0px; fill: rgb(198, 219, 239); fill-opacity: 1;"/><path class="point" transform="translate(729.64,323.43)" d="M3,0A3,3 0 1,1 0,-3A3,3 0 0,1 3,0Z" style="opacity: 1; stroke-width: 0px; fill: rgb(198, 219, 239); fill-opacity: 1;"/><path class="point" transform="translate(732.51,321.49)" d="M3,0A3,3 0 1,1 0,-3A3,3 0 0,1 3,0Z" style="opacity: 1; stroke-width: 0px; fill: rgb(198, 219, 239); fill-opacity: 1;"/><path class="point" transform="translate(741.68,320.52)" d="M3,0A3,3 0 1,1 0,-3A3,3 0 0,1 3,0Z" style="opacity: 1; stroke-width: 0px; fill: rgb(198, 219, 239); fill-opacity: 1;"/><path class="point" transform="translate(734.71,320.52)" d="M3,0A3,3 0 1,1 0,-3A3,3 0 0,1 3,0Z" style="opacity: 1; stroke-width: 0px; fill: rgb(198, 219, 239); fill-opacity: 1;"/><path class="point" transform="translate(730.91,320.52)" d="M3,0A3,3 0 1,1 0,-3A3,3 0 0,1 3,0Z" style="opacity: 1; stroke-width: 0px; fill: rgb(198, 219, 239); fill-opacity: 1;"/><path class="point" transform="translate(734.12,318.59)" d="M3,0A3,3 0 1,1 0,-3A3,3 0 0,1 3,0Z" style="opacity: 1; stroke-width: 0px; fill: rgb(198, 219, 239); fill-opacity: 1;"/><path class="point" transform="translate(736.12,316.65)" d="M3,0A3,3 0 1,1 0,-3A3,3 0 0,1 3,0Z" style="opacity: 1; stroke-width: 0px; fill: rgb(198, 219, 239); fill-opacity: 1;"/><path class="point" transform="translate(739.34,314.72)" d="M3,0A3,3 0 1,1 0,-3A3,3 0 0,1 3,0Z" style="opacity: 1; stroke-width: 0px; fill: rgb(198, 219, 239); fill-opacity: 1;"/><path class="point" transform="translate(736.96,314.72)" d="M3,0A3,3 0 1,1 0,-3A3,3 0 0,1 3,0Z" style="opacity: 1; stroke-width: 0px; fill: rgb(198, 219, 239); fill-opacity: 1;"/><path class="point" transform="translate(734.52,312.88)" d="M3,0A3,3 0 1,1 0,-3A3,3 0 0,1 3,0Z" style="opacity: 1; stroke-width: 0px; fill: rgb(198, 219, 239); fill-opacity: 1;"/><path class="point" transform="translate(730.94,312.78)" d="M3,0A3,3 0 1,1 0,-3A3,3 0 0,1 3,0Z" style="opacity: 1; stroke-width: 0px; fill: rgb(198, 219, 239); fill-opacity: 1;"/><path class="point" transform="translate(736.25,312.78)" d="M3,0A3,3 0 1,1 0,-3A3,3 0 0,1 3,0Z" style="opacity: 1; stroke-width: 0px; fill: rgb(198, 219, 239); fill-opacity: 1;"/><path class="point" transform="translate(734.28,310.84)" d="M3,0A3,3 0 1,1 0,-3A3,3 0 0,1 3,0Z" style="opacity: 1; stroke-width: 0px; fill: rgb(198, 219, 239); fill-opacity: 1;"/><path class="point" transform="translate(739.44,308.91)" d="M3,0A3,3 0 1,1 0,-3A3,3 0 0,1 3,0Z" style="opacity: 1; stroke-width: 0px; fill: rgb(198, 219, 239); fill-opacity: 1;"/><path class="point" transform="translate(735.67,308.91)" d="M3,0A3,3 0 1,1 0,-3A3,3 0 0,1 3,0Z" style="opacity: 1; stroke-width: 0px; fill: rgb(198, 219, 239); fill-opacity: 1;"/><path class="point" transform="translate(732.02,307.55)" d="M3,0A3,3 0 1,1 0,-3A3,3 0 0,1 3,0Z" style="opacity: 1; stroke-width: 0px; fill: rgb(198, 219, 239); fill-opacity: 1;"/><path class="point" transform="translate(730.47,305.03)" d="M3,0A3,3 0 1,1 0,-3A3,3 0 0,1 3,0Z" style="opacity: 1; stroke-width: 0px; fill: rgb(198, 219, 239); fill-opacity: 1;"/><path class="point" transform="translate(739.94,305.03)" d="M3,0A3,3 0 1,1 0,-3A3,3 0 0,1 3,0Z" style="opacity: 1; stroke-width: 0px; fill: rgb(198, 219, 239); fill-opacity: 1;"/><path class="point" transform="translate(730.45,305.03)" d="M3,0A3,3 0 1,1 0,-3A3,3 0 0,1 3,0Z" style="opacity: 1; stroke-width: 0px; fill: rgb(198, 219, 239); fill-opacity: 1;"/><path class="point" transform="translate(740.32,303.1)" d="M3,0A3,3 0 1,1 0,-3A3,3 0 0,1 3,0Z" style="opacity: 1; stroke-width: 0px; fill: rgb(198, 219, 239); fill-opacity: 1;"/><path class="point" transform="translate(737.88,302.13)" d="M3,0A3,3 0 1,1 0,-3A3,3 0 0,1 3,0Z" style="opacity: 1; stroke-width: 0px; fill: rgb(198, 219, 239); fill-opacity: 1;"/><path class="point" transform="translate(734,301.16)" d="M3,0A3,3 0 1,1 0,-3A3,3 0 0,1 3,0Z" style="opacity: 1; stroke-width: 0px; fill: rgb(198, 219, 239); fill-opacity: 1;"/><path class="point" transform="translate(731.76,300.19)" d="M3,0A3,3 0 1,1 0,-3A3,3 0 0,1 3,0Z" style="opacity: 1; stroke-width: 0px; fill: rgb(198, 219, 239); fill-opacity: 1;"/><path class="point" transform="translate(739.35,299.23)" d="M3,0A3,3 0 1,1 0,-3A3,3 0 0,1 3,0Z" style="opacity: 1; stroke-width: 0px; fill: rgb(198, 219, 239); fill-opacity: 1;"/><path class="point" transform="translate(735.45,299.23)" d="M3,0A3,3 0 1,1 0,-3A3,3 0 0,1 3,0Z" style="opacity: 1; stroke-width: 0px; fill: rgb(198, 219, 239); fill-opacity: 1;"/><path class="point" transform="translate(741.86,299.23)" d="M3,0A3,3 0 1,1 0,-3A3,3 0 0,1 3,0Z" style="opacity: 1; stroke-width: 0px; fill: rgb(198, 219, 239); fill-opacity: 1;"/><path class="point" transform="translate(729.87,297.29)" d="M3,0A3,3 0 1,1 0,-3A3,3 0 0,1 3,0Z" style="opacity: 1; stroke-width: 0px; fill: rgb(198, 219, 239); fill-opacity: 1;"/><path class="point" transform="translate(741.47,297.29)" d="M3,0A3,3 0 1,1 0,-3A3,3 0 0,1 3,0Z" style="opacity: 1; stroke-width: 0px; fill: rgb(198, 219, 239); fill-opacity: 1;"/><path class="point" transform="translate(735.54,295.35)" d="M3,0A3,3 0 1,1 0,-3A3,3 0 0,1 3,0Z" style="opacity: 1; stroke-width: 0px; fill: rgb(198, 219, 239); fill-opacity: 1;"/><path class="point" transform="translate(732.82,295.35)" d="M3,0A3,3 0 1,1 0,-3A3,3 0 0,1 3,0Z" style="opacity: 1; stroke-width: 0px; fill: rgb(198, 219, 239); fill-opacity: 1;"/><path class="point" transform="translate(728.77,295.35)" d="M3,0A3,3 0 1,1 0,-3A3,3 0 0,1 3,0Z" style="opacity: 1; stroke-width: 0px; fill: rgb(198, 219, 239); fill-opacity: 1;"/><path class="point" transform="translate(733.23,293.42)" d="M3,0A3,3 0 1,1 0,-3A3,3 0 0,1 3,0Z" style="opacity: 1; stroke-width: 0px; fill: rgb(198, 219, 239); fill-opacity: 1;"/><path class="point" transform="translate(740.43,293.42)" d="M3,0A3,3 0 1,1 0,-3A3,3 0 0,1 3,0Z" style="opacity: 1; stroke-width: 0px; fill: rgb(198, 219, 239); fill-opacity: 1;"/><path class="point" transform="translate(734.64,293.42)" d="M3,0A3,3 0 1,1 0,-3A3,3 0 0,1 3,0Z" style="opacity: 1; stroke-width: 0px; fill: rgb(198, 219, 239); fill-opacity: 1;"/><path class="point" transform="translate(730.98,293.42)" d="M3,0A3,3 0 1,1 0,-3A3,3 0 0,1 3,0Z" style="opacity: 1; stroke-width: 0px; fill: rgb(198, 219, 239); fill-opacity: 1;"/><path class="point" transform="translate(739.28,291.48)" d="M3,0A3,3 0 1,1 0,-3A3,3 0 0,1 3,0Z" style="opacity: 1; stroke-width: 0px; fill: rgb(198, 219, 239); fill-opacity: 1;"/><path class="point" transform="translate(732.94,289.84)" d="M3,0A3,3 0 1,1 0,-3A3,3 0 0,1 3,0Z" style="opacity: 1; stroke-width: 0px; fill: rgb(198, 219, 239); fill-opacity: 1;"/><path class="point" transform="translate(736.27,285.67)" d="M3,0A3,3 0 1,1 0,-3A3,3 0 0,1 3,0Z" style="opacity: 1; stroke-width: 0px; fill: rgb(198, 219, 239); fill-opacity: 1;"/><path class="point" transform="translate(738.74,285.67)" d="M3,0A3,3 0 1,1 0,-3A3,3 0 0,1 3,0Z" style="opacity: 1; stroke-width: 0px; fill: rgb(198, 219, 239); fill-opacity: 1;"/><path class="point" transform="translate(731.04,285.67)" d="M3,0A3,3 0 1,1 0,-3A3,3 0 0,1 3,0Z" style="opacity: 1; stroke-width: 0px; fill: rgb(198, 219, 239); fill-opacity: 1;"/><path class="point" transform="translate(741.32,283.74)" d="M3,0A3,3 0 1,1 0,-3A3,3 0 0,1 3,0Z" style="opacity: 1; stroke-width: 0px; fill: rgb(198, 219, 239); fill-opacity: 1;"/><path class="point" transform="translate(738.64,281.8)" d="M3,0A3,3 0 1,1 0,-3A3,3 0 0,1 3,0Z" style="opacity: 1; stroke-width: 0px; fill: rgb(198, 219, 239); fill-opacity: 1;"/><path class="point" transform="translate(730.24,279.87)" d="M3,0A3,3 0 1,1 0,-3A3,3 0 0,1 3,0Z" style="opacity: 1; stroke-width: 0px; fill: rgb(198, 219, 239); fill-opacity: 1;"/><path class="point" transform="translate(741.67,279.87)" d="M3,0A3,3 0 1,1 0,-3A3,3 0 0,1 3,0Z" style="opacity: 1; stroke-width: 0px; fill: rgb(198, 219, 239); fill-opacity: 1;"/><path class="point" transform="translate(732.32,277.93)" d="M3,0A3,3 0 1,1 0,-3A3,3 0 0,1 3,0Z" style="opacity: 1; stroke-width: 0px; fill: rgb(198, 219, 239); fill-opacity: 1;"/><path class="point" transform="translate(735.58,275.99)" d="M3,0A3,3 0 1,1 0,-3A3,3 0 0,1 3,0Z" style="opacity: 1; stroke-width: 0px; fill: rgb(198, 219, 239); fill-opacity: 1;"/><path class="point" transform="translate(736.94,275.99)" d="M3,0A3,3 0 1,1 0,-3A3,3 0 0,1 3,0Z" style="opacity: 1; stroke-width: 0px; fill: rgb(198, 219, 239); fill-opacity: 1;"/><path class="point" transform="translate(733.88,275.99)" d="M3,0A3,3 0 1,1 0,-3A3,3 0 0,1 3,0Z" style="opacity: 1; stroke-width: 0px; fill: rgb(198, 219, 239); fill-opacity: 1;"/><path class="point" transform="translate(739.08,275.99)" d="M3,0A3,3 0 1,1 0,-3A3,3 0 0,1 3,0Z" style="opacity: 1; stroke-width: 0px; fill: rgb(198, 219, 239); fill-opacity: 1;"/><path class="point" transform="translate(733.52,270.19)" d="M3,0A3,3 0 1,1 0,-3A3,3 0 0,1 3,0Z" style="opacity: 1; stroke-width: 0px; fill: rgb(198, 219, 239); fill-opacity: 1;"/><path class="point" transform="translate(738.01,270.19)" d="M3,0A3,3 0 1,1 0,-3A3,3 0 0,1 3,0Z" style="opacity: 1; stroke-width: 0px; fill: rgb(198, 219, 239); fill-opacity: 1;"/><path class="point" transform="translate(739.63,266.31)" d="M3,0A3,3 0 1,1 0,-3A3,3 0 0,1 3,0Z" style="opacity: 1; stroke-width: 0px; fill: rgb(198, 219, 239); fill-opacity: 1;"/><path class="point" transform="translate(732.45,266.31)" d="M3,0A3,3 0 1,1 0,-3A3,3 0 0,1 3,0Z" style="opacity: 1; stroke-width: 0px; fill: rgb(198, 219, 239); fill-opacity: 1;"/><path class="point" transform="translate(734.11,256.63)" d="M3,0A3,3 0 1,1 0,-3A3,3 0 0,1 3,0Z" style="opacity: 1; stroke-width: 0px; fill: rgb(198, 219, 239); fill-opacity: 1;"/><path class="point" transform="translate(738.56,254.7)" d="M3,0A3,3 0 1,1 0,-3A3,3 0 0,1 3,0Z" style="opacity: 1; stroke-width: 0px; fill: rgb(198, 219, 239); fill-opacity: 1;"/><path class="point" transform="translate(735.25,254.7)" d="M3,0A3,3 0 1,1 0,-3A3,3 0 0,1 3,0Z" style="opacity: 1; stroke-width: 0px; fill: rgb(198, 219, 239); fill-opacity: 1;"/><path class="point" transform="translate(736.61,254.7)" d="M3,0A3,3 0 1,1 0,-3A3,3 0 0,1 3,0Z" style="opacity: 1; stroke-width: 0px; fill: rgb(198, 219, 239); fill-opacity: 1;"/><path class="point" transform="translate(739.33,248.89)" d="M3,0A3,3 0 1,1 0,-3A3,3 0 0,1 3,0Z" style="opacity: 1; stroke-width: 0px; fill: rgb(198, 219, 239); fill-opacity: 1;"/><path class="point" transform="translate(733.23,246.95)" d="M3,0A3,3 0 1,1 0,-3A3,3 0 0,1 3,0Z" style="opacity: 1; stroke-width: 0px; fill: rgb(198, 219, 239); fill-opacity: 1;"/><path class="point" transform="translate(740.33,245.42)" d="M3,0A3,3 0 1,1 0,-3A3,3 0 0,1 3,0Z" style="opacity: 1; stroke-width: 0px; fill: rgb(198, 219, 239); fill-opacity: 1;"/><path class="point" transform="translate(733.52,241.15)" d="M3,0A3,3 0 1,1 0,-3A3,3 0 0,1 3,0Z" style="opacity: 1; stroke-width: 0px; fill: rgb(198, 219, 239); fill-opacity: 1;"/><path class="point" transform="translate(738.93,241.15)" d="M3,0A3,3 0 1,1 0,-3A3,3 0 0,1 3,0Z" style="opacity: 1; stroke-width: 0px; fill: rgb(198, 219, 239); fill-opacity: 1;"/><path class="point" transform="translate(735,231.47)" d="M3,0A3,3 0 1,1 0,-3A3,3 0 0,1 3,0Z" style="opacity: 1; stroke-width: 0px; fill: rgb(198, 219, 239); fill-opacity: 1;"/><path class="point" transform="translate(738.13,227.59)" d="M3,0A3,3 0 1,1 0,-3A3,3 0 0,1 3,0Z" style="opacity: 1; stroke-width: 0px; fill: rgb(198, 219, 239); fill-opacity: 1;"/><path class="point" transform="translate(736.95,227.59)" d="M3,0A3,3 0 1,1 0,-3A3,3 0 0,1 3,0Z" style="opacity: 1; stroke-width: 0px; fill: rgb(198, 219, 239); fill-opacity: 1;"/><path class="point" transform="translate(735.98,221.78)" d="M3,0A3,3 0 1,1 0,-3A3,3 0 0,1 3,0Z" style="opacity: 1; stroke-width: 0px; fill: rgb(198, 219, 239); fill-opacity: 1;"/><path class="point" transform="translate(734.24,192.74)" d="M3,0A3,3 0 1,1 0,-3A3,3 0 0,1 3,0Z" style="opacity: 1; stroke-width: 0px; fill: rgb(198, 219, 239); fill-opacity: 1;"/><path class="point" transform="translate(735.93,183.06)" d="M3,0A3,3 0 1,1 0,-3A3,3 0 0,1 3,0Z" style="opacity: 1; stroke-width: 0px; fill: rgb(198, 219, 239); fill-opacity: 1;"/><path class="point" transform="translate(734.6,173.38)" d="M3,0A3,3 0 1,1 0,-3A3,3 0 0,1 3,0Z" style="opacity: 1; stroke-width: 0px; fill: rgb(198, 219, 239); fill-opacity: 1;"/><path class="point" transform="translate(735.32,167.58)" d="M3,0A3,3 0 1,1 0,-3A3,3 0 0,1 3,0Z" style="opacity: 1; stroke-width: 0px; fill: rgb(198, 219, 239); fill-opacity: 1;"/><path class="point" transform="translate(734.94,144.34)" d="M3,0A3,3 0 1,1 0,-3A3,3 0 0,1 3,0Z" style="opacity: 1; stroke-width: 0px; fill: rgb(198, 219, 239); fill-opacity: 1;"/><path class="point" transform="translate(734.46,144.34)" d="M3,0A3,3 0 1,1 0,-3A3,3 0 0,1 3,0Z" style="opacity: 1; stroke-width: 0px; fill: rgb(198, 219, 239); fill-opacity: 1;"/><path class="point" transform="translate(735.32,124.98)" d="M3,0A3,3 0 1,1 0,-3A3,3 0 0,1 3,0Z" style="opacity: 1; stroke-width: 0px; fill: rgb(198, 219, 239); fill-opacity: 1;"/><path class="point" transform="translate(736.86,115.3)" d="M3,0A3,3 0 1,1 0,-3A3,3 0 0,1 3,0Z" style="opacity: 1; stroke-width: 0px; fill: rgb(198, 219, 239); fill-opacity: 1;"/><path class="point" transform="translate(734.82,76.58)" d="M3,0A3,3 0 1,1 0,-3A3,3 0 0,1 3,0Z" style="opacity: 1; stroke-width: 0px; fill: rgb(198, 219, 239); fill-opacity: 1;"/><path class="point" transform="translate(736.67,66.9)" d="M3,0A3,3 0 1,1 0,-3A3,3 0 0,1 3,0Z" style="opacity: 1; stroke-width: 0px; fill: rgb(198, 219, 239); fill-opacity: 1;"/><path class="point" transform="translate(737.05,57.22)" d="M3,0A3,3 0 1,1 0,-3A3,3 0 0,1 3,0Z" style="opacity: 1; stroke-width: 0px; fill: rgb(198, 219, 239); fill-opacity: 1;"/></g></g></g></g><g class="overplot"/><path class="xlines-above crisp" d="M0,0" style="fill: none;"/><path class="ylines-above crisp" d="M0,0" style="fill: none;"/><g class="overlines-above"/><g class="xaxislayer-above"><g class="xtick"><text text-anchor="middle" x="0" y="485" transform="translate(142.79,0)" style="font-family: 'Open Sans', verdana, arial, sans-serif; font-size: 14px; fill: rgb(105, 105, 105); fill-opacity: 1; white-space: pre; opacity: 1;">ML Engineer</text></g><g class="xtick"><text text-anchor="middle" x="0" y="485" transform="translate(262.36,0)" style="font-family: 'Open Sans', verdana, arial, sans-serif; font-size: 14px; fill: rgb(105, 105, 105); fill-opacity: 1; white-space: pre; opacity: 1;">Data Architect</text></g><g class="xtick"><text text-anchor="middle" x="0" y="485" transform="translate(381.93,0)" style="font-family: 'Open Sans', verdana, arial, sans-serif; font-size: 14px; fill: rgb(105, 105, 105); fill-opacity: 1; white-space: pre; opacity: 1;">Data Engineer</text></g><g class="xtick"><text text-anchor="middle" x="0" y="485" transform="translate(501.5,0)" style="font-family: 'Open Sans', verdana, arial, sans-serif; font-size: 14px; fill: rgb(105, 105, 105); fill-opacity: 1; white-space: pre; opacity: 1;">Data Scientist</text></g><g class="xtick"><text text-anchor="middle" x="0" y="485" transform="translate(621.07,0)" style="font-family: 'Open Sans', verdana, arial, sans-serif; font-size: 14px; fill: rgb(105, 105, 105); fill-opacity: 1; white-space: pre; opacity: 1;">Business Analyst</text></g><g class="xtick"><text text-anchor="middle" x="0" y="485" transform="translate(740.64,0)" style="font-family: 'Open Sans', verdana, arial, sans-serif; font-size: 14px; fill: rgb(105, 105, 105); fill-opacity: 1; white-space: pre; opacity: 1;">BI Analyst</text></g><g class="xtick"><text text-anchor="middle" x="0" y="485" transform="translate(860.21,0)" style="font-family: 'Open Sans', verdana, arial, sans-serif; font-size: 14px; fill: rgb(105, 105, 105); fill-opacity: 1; white-space: pre; opacity: 1;">Data Analyst</text></g></g><g class="yaxislayer-above"><g class="ytick"><text text-anchor="end" x="79" y="4.8999999999999995" transform="translate(0,466.99)" style="font-family: 'Open Sans', verdana, arial, sans-serif; font-size: 14px; fill: rgb(105, 105, 105); fill-opacity: 1; white-space: pre; opacity: 1;">$0</text></g><g class="ytick"><text text-anchor="end" x="79" y="4.8999999999999995" style="font-family: 'Open Sans', verdana, arial, sans-serif; font-size: 14px; fill: rgb(105, 105, 105); fill-opacity: 1; white-space: pre; opacity: 1;" transform="translate(0,428.27)">$10k</text></g><g class="ytick"><text text-anchor="end" x="79" y="4.8999999999999995" style="font-family: 'Open Sans', verdana, arial, sans-serif; font-size: 14px; fill: rgb(105, 105, 105); fill-opacity: 1; white-space: pre; opacity: 1;" transform="translate(0,389.55)">$20k</text></g><g class="ytick"><text text-anchor="end" x="79" y="4.8999999999999995" style="font-family: 'Open Sans', verdana, arial, sans-serif; font-size: 14px; fill: rgb(105, 105, 105); fill-opacity: 1; white-space: pre; opacity: 1;" transform="translate(0,350.83000000000004)">$30k</text></g><g class="ytick"><text text-anchor="end" x="79" y="4.8999999999999995" style="font-family: 'Open Sans', verdana, arial, sans-serif; font-size: 14px; fill: rgb(105, 105, 105); fill-opacity: 1; white-space: pre; opacity: 1;" transform="translate(0,312.1)">$40k</text></g><g class="ytick"><text text-anchor="end" x="79" y="4.8999999999999995" style="font-family: 'Open Sans', verdana, arial, sans-serif; font-size: 14px; fill: rgb(105, 105, 105); fill-opacity: 1; white-space: pre; opacity: 1;" transform="translate(0,273.38)">$50k</text></g><g class="ytick"><text text-anchor="end" x="79" y="4.8999999999999995" style="font-family: 'Open Sans', verdana, arial, sans-serif; font-size: 14px; fill: rgb(105, 105, 105); fill-opacity: 1; white-space: pre; opacity: 1;" transform="translate(0,234.66)">$60k</text></g><g class="ytick"><text text-anchor="end" x="79" y="4.8999999999999995" style="font-family: 'Open Sans', verdana, arial, sans-serif; font-size: 14px; fill: rgb(105, 105, 105); fill-opacity: 1; white-space: pre; opacity: 1;" transform="translate(0,195.94)">$70k</text></g><g class="ytick"><text text-anchor="end" x="79" y="4.8999999999999995" style="font-family: 'Open Sans', verdana, arial, sans-serif; font-size: 14px; fill: rgb(105, 105, 105); fill-opacity: 1; white-space: pre; opacity: 1;" transform="translate(0,157.22)">$80k</text></g><g class="ytick"><text text-anchor="end" x="79" y="4.8999999999999995" style="font-family: 'Open Sans', verdana, arial, sans-serif; font-size: 14px; fill: rgb(105, 105, 105); fill-opacity: 1; white-space: pre; opacity: 1;" transform="translate(0,118.5)">$90k</text></g></g><g class="overaxes-above"/></g></g><g class="polarlayer"/><g class="smithlayer"/><g class="ternarylayer"/><g class="geolayer"/><g class="funnelarealayer"/><g class="pielayer"/><g class="iciclelayer"/><g class="treemaplayer"/><g class="sunburstlayer"/><g class="glimages"/><defs id="topdefs-c3e25c"><g class="clips"/></defs><g class="layer-above"><g class="imagelayer"/><g class="shapelayer"/></g><g class="infolayer"><g class="g-gtitle"><text class="gtitle" x="500" y="50" text-anchor="middle" dy="0em" style="font-family: 'Open Sans', verdana, arial, sans-serif; font-size: 20px; fill: rgb(105, 105, 105); opacity: 1; font-weight: normal; white-space: pre;"><tspan style="font-weight:bold">Salary Per Data Job Category</tspan></text></g><g class="g-xtitle"><text class="xtitle" x="500" y="514.4" text-anchor="middle" style="font-family: 'Open Sans', verdana, arial, sans-serif; font-size: 17px; fill: rgb(105, 105, 105); opacity: 1; font-weight: normal; white-space: pre;"><tspan style="font-weight:bold">Data Job Category</tspan></text></g><g class="g-ytitle"><text class="ytitle" transform="rotate(-90,17.6,285)" x="17.6" y="285" text-anchor="middle" style="font-family: 'Open Sans', verdana, arial, sans-serif; font-size: 17px; fill: rgb(105, 105, 105); opacity: 1; font-weight: normal; white-space: pre;"><tspan style="font-weight:bold">Average Monthly Salary (MXN)</tspan></text></g></g></svg>